<svg width="85" height="51" viewBox="0 0 85 51" fill="none" xmlns="http://www.w3.org/2000/svg">
<path d="M45.5313 9.6694C44.1721 10.5595 43.388 11.6114 43.1267 12.906C43.0744 13.1488 43.0744 13.3511 43.0744 13.5938L48.72 46.6075V46.6884C48.6678 46.8098 48.5632 46.9716 48.3541 47.093C47.9359 47.3762 47.5177 47.538 47.0995 47.5785C46.8904 47.6189 46.7859 47.6594 46.6291 47.6594H37.3242L19.8121 47.5785L20.8053 43.0472H31.5739L32.3058 39.851H21.5372L27.8624 11.5305H38.9969L39.7288 8.33429H24.5691L15.0551 50.7342L36.5923 50.8151H45.8972C46.3154 50.8151 46.7859 50.7747 47.3086 50.6937C48.5632 50.451 49.7133 50.006 50.6542 49.3182C51.8043 48.5495 52.5361 47.6594 52.7452 46.6884C52.7975 46.4052 52.7975 46.1624 52.7452 45.8792L47.2041 12.8251C47.2041 12.7847 47.2041 12.7442 47.2041 12.7037C47.2041 12.6633 47.2041 12.6633 47.2041 12.5824C47.3086 12.2992 47.5177 12.0564 47.8314 11.8541C48.2496 11.5709 48.72 11.4495 49.2428 11.4495H60.5341L61.2137 8.33429H49.9746C48.3019 8.37475 46.8382 8.81978 45.5313 9.6694Z" fill="#13B497"/>
<path d="M84.7896 0H67.5912H4.86155L4.18198 3.19618H10.664L0 50.7342H4.1297L14.7415 3.19618H66.9116H73.3937L62.7297 50.7342H66.8594L77.4711 3.19618H84.0577L84.7896 0Z" fill="#13B497"/>
</svg>
